<svg xmlns="http://www.w3.org/2000/svg" width="1024" height="1024" preserveAspectRatio="none" style="display:block" viewBox="0 0 2048 2048"><path fill="#005E54" d="M353.284 544.749c.247-27.572-.087-43.095 30.336-53.44 130.853-44.498 269.819-53 406.962-51.193 30.204.689 60.374 2.453 90.452 5.288 59.651 5.238 116.844 13.372 174.966 28.332 140.5 36.164 274.64 106.414 376.15 211.007 113.91 119.072 175.93 278.47 172.45 443.217-.43 26.49-3.02 49.95-4.83 76.02l94.25 46.64c23.88 16.32 22.55 41.35-1.75 56.42-23.86 14.81-48.03 29.12-72.14 43.52l-130.39 77.92-132.31 79.27c-23.76 14.32-47.45 28.8-71.34 42.9-5.42 3.19-12.17 6.38-18.4 7.11-36.71 4.28-43.49-32.41-51.26-59.07-4.3-14.73-8.87-28.83-12.45-43.17-9.53-29.68-18.15-60.66-27-90.66l-51.46-175.08-31.05-106.01c-5.71-19.35-12.25-39.47-17.03-58.99-1.64-8.65-3.09-16.97 1.05-25.157 7.57-15.005 23.97-24.082 40.38-17.71 18.73 7.277 36.76 16.923 54.8 25.837l104.41 51.36c-5.48-92.589-34.31-158.264-101.79-223.525-154.79-149.711-424.849-159.551-624.581-125.448a1252 1252 0 0 0-98.263 20.835c-20.801 5.207-44.085 14.957-64.929 16.391-22.232 1.528-34.737-18.974-34.435-38.967l.011-32.623c-.759-43.201.779-88-.809-131.024"/><path fill="#EC982F" d="M353.284 544.749c.247-27.572-.087-43.095 30.336-53.44 130.853-44.498 269.819-53 406.962-51.193 30.204.689 60.374 2.453 90.452 5.288 59.651 5.238 116.844 13.372 174.966 28.332 140.5 36.164 274.64 106.414 376.15 211.007 113.91 119.072 175.93 278.47 172.45 443.217-.43 26.49-3.02 49.95-4.83 76.02-11.38-5.37-43.03-21.32-51.91-27.63 1.96-11.43 2.66-27.02 3.3-38.8a573.4 573.4 0 0 0-34.49-226.454c-44.82-121.437-122.94-211.167-229.56-282.851a755 755 0 0 0-106.8-60.521 866.8 866.8 0 0 0-181.706-60.156c-195.524-41.933-457.578-32.611-645.32 37.181"/><path fill="#EC982F" d="M354.082 708.396c3.13 1.385 3.802 1.752 7.785.671 13.98-3.795 28.011-8.264 41.94-12.206a1736 1736 0 0 1 86.669-22.438 1154 1154 0 0 1 110.046-19.482 1060 1060 0 0 1 211.83-6.249c134.903 9.041 264.318 40.804 372.138 125.697 55.72 43.88 97.88 95.048 123.18 161.668 20.47 53.879 25.72 93.533 24.18 150.753-6-1.38-45.54-23.39-53.77-27.7-5.48-92.589-34.31-158.264-101.79-223.525-154.79-149.711-424.849-159.551-624.581-125.448a1252 1252 0 0 0-98.263 20.835c-20.801 5.207-44.085 14.957-64.929 16.391-22.232 1.528-34.737-18.974-34.435-38.967"/><path fill="#002C30" d="M354.093 675.773a1288.5 1288.5 0 0 1 216.635-54.085c11.222-1.709 22.514-2.979 33.767-4.449 275.626-36.016 653.165 29.996 757.025 330.058a373 373 0 0 1 21.02 129.063c-.1 12.18-1.2 23.7-1.63 35.65-8.12-4.06-43.42-21.15-49.06-25.2 1.54-57.22-3.71-96.874-24.18-150.753-25.3-66.62-67.46-117.788-123.18-161.668-107.82-84.893-237.235-116.656-372.138-125.697a1060 1060 0 0 0-211.83 6.249 1154 1154 0 0 0-110.046 19.482 1736 1736 0 0 0-86.669 22.438c-13.929 3.942-27.96 8.411-41.94 12.206-3.983 1.081-4.655.714-7.785-.671z"/><path fill="#002C30" d="M1694.02 1250.62c23.88 16.32 22.55 41.35-1.75 56.42-23.86 14.81-48.03 29.12-72.14 43.52l-130.39 77.92-132.31 79.27c-23.76 14.32-47.45 28.8-71.34 42.9-5.42 3.19-12.17 6.38-18.4 7.11-36.71 4.28-43.49-32.41-51.26-59.07-4.3-14.73-8.87-28.83-12.45-43.17 5.72 6.75 19.02 59.17 23.91 72.78 16.6-11.81 40.68-25.37 58.7-36.09l94.38-55.77c58.96-34.43 118.74-71.72 177.9-105.37 32.11-18.4 64.01-37.18 95.68-56.34 7.5-4.48 33.99-19.6 39.47-24.11"/></svg>